<?xml version="1.0" encoding="UTF-8"?> <!-- Generator: Adobe Illustrator 27.5.0, SVG Export Plug-In . SVG Version: 6.00 Build 0) --> <svg xmlns="http://www.w3.org/2000/svg" xmlns:xlink="http://www.w3.org/1999/xlink" id="Layer_1" x="0px" y="0px" viewBox="0 0 288.2 48.9" style="enable-background:new 0 0 288.2 48.9;" xml:space="preserve"> <style type="text/css"> .st0{fill:url(#SVGID_1_);} </style> <g id="a"> </g> <linearGradient id="SVGID_1_" gradientUnits="userSpaceOnUse" x1="219.8163" y1="102.5305" x2="66.9594" y2="-50.3357"> <stop offset="0" style="stop-color:#EDCA92"></stop> <stop offset="0.58" style="stop-color:#B28958"></stop> <stop offset="0.69" style="stop-color:#FFFDED"></stop> <stop offset="0.85" style="stop-color:#B78E5C"></stop> <stop offset="1" style="stop-color:#FFDEA4"></stop> </linearGradient> <path class="st0" d="M0,47.5l0.2-1.2h7.7l6.4-40.2c-3.5,3.2-6.3,5.3-8.5,6.3l-0.5-1.1c3.5-2.1,7.4-5.5,11.6-10.3h1.4l-6.4,39.8 c-0.1,0.6-0.1,1-0.1,1.4c0,0.3-0.1,0.7-0.1,1s-0.1,0.7-0.1,0.9c0,0.5,0.1,0.8,0.1,1c0.3,0.7,1.6,1.1,3.8,1.1H19l-0.2,1.2L0,47.5 L0,47.5z M55.3,45.7c0.1-0.7,0.4-1.4,1.1-1.9s1.3-0.8,2.1-0.8c0.7,0,1.3,0.2,1.7,0.7s0.6,1.2,0.6,2c-0.1,0.8-0.5,1.4-1.1,1.9 s-1.3,0.8-2,0.8s-1.3-0.3-1.8-0.8C55.6,47.1,55.3,46.5,55.3,45.7L55.3,45.7z M69.8,27c0.6-4,2.1-7.9,4.3-11.7c2.3-3.8,5.2-7,8.7-9.5 c3.5-2.5,7.2-3.7,11.3-3.7c3.3,0,6.2,0.9,8.7,2.6s4.3,4,5.5,6.8c1.2,2.8,1.9,5.9,1.9,9.1c0,1.4-0.1,2.7-0.3,3.8 c-0.6,3.8-2,7.5-4.3,11.3c-2.3,3.8-5.2,6.9-8.6,9.4s-7.2,3.7-11,3.7c-3.2,0-6.1-0.8-8.6-2.5s-4.4-3.9-5.7-6.7s-2-5.8-2-9 C69.5,29.3,69.6,28.1,69.8,27L69.8,27z M100.4,39.9c3-3.4,5-7.6,6-12.8c0.3-1.7,0.4-3.3,0.4-4.9c0-3.9-0.9-7.3-2.7-10.2 c-3-4.9-6.9-7.3-11.6-7.3C87.5,4.9,83.1,7,79.4,11c-3,3.2-5,7.6-6.1,13.2c-0.3,1.5-0.4,3-0.4,4.5c0,4,1,7.4,2.9,10.3 c3,4.6,7,7,12.2,7.1c2.2,0,4.4-0.6,6.7-1.7C96.7,43.3,98.7,41.8,100.4,39.9L100.4,39.9z M140.8,33.8c-0.4,2.6-1.5,4.9-3.3,7.1 c-1.8,2.2-4.1,3.9-6.7,5.2s-5.2,1.9-7.7,1.9c-2.2,0-4.2-0.5-5.9-1.4s-3-2.3-3.9-4c-0.9-1.7-1.4-3.6-1.4-5.7c0-1,0.1-1.7,0.1-2.2 c0.4-2.2,1.2-4.3,2.4-6.2s2.7-3.6,4.6-5s3.8-2.5,6-3.2c-4.1-2.5-6.2-5.6-6.2-9.2c0.3-1.8,1.1-3.5,2.5-5s3-2.7,5-3.6 c1.9-0.9,3.8-1.3,5.6-1.4c3.3,0,5.9,1.1,7.7,3.3c1.3,1.7,1.9,3.6,1.9,5.8c0,0.4-0.1,0.9-0.1,1.5c-0.3,2.1-1,3.9-2.2,5.5 s-2.8,3.1-4.9,4.6c2.2,1.6,3.9,3.2,5,4.7s1.8,3.4,1.8,5.5C140.9,32.3,140.9,32.9,140.8,33.8L140.8,33.8z M115.3,32.7 c-0.1,0.8-0.2,1.6-0.2,2.3c0,2,0.4,3.8,1.2,5.5s2,2.9,3.6,3.9s3.4,1.4,5.5,1.4c3,0,5.6-0.9,7.8-2.8c2.3-1.9,3.7-4.3,4.2-7.3 c0.1-0.4,0.1-1,0.1-1.8c0-1.5-0.3-2.8-0.9-4c-0.6-1.2-1.5-2.2-2.5-3.1c-1-0.9-2.2-1.8-3.7-2.7s-2.6-1.7-3.5-2.2 c-3.1,0.1-5.6,1.1-7.7,3.1S115.8,29.5,115.3,32.7L115.3,32.7z M133.1,21c3-2.2,4.7-4.8,5.2-7.8c0-1.9-0.4-3.6-1.2-5.2 c-0.8-1.5-1.9-2.7-3.3-3.5s-2.9-1.2-4.6-1.2c-1.8,0.1-3.4,0.6-4.7,1.7s-2.1,2.4-2.3,4.2c0,2.1,0.5,3.7,1.6,5s2.5,2.5,4.4,3.7 L133.1,21L133.1,21z M144.6,45.7c0.1-0.7,0.4-1.4,1.1-1.9c0.6-0.5,1.4-0.8,2.1-0.8c0.7,0,1.3,0.2,1.7,0.7s0.6,1.2,0.6,2 c-0.1,0.8-0.5,1.4-1.1,1.9s-1.3,0.8-2,0.8s-1.3-0.3-1.8-0.8C144.8,47.1,144.6,46.5,144.6,45.7L144.6,45.7z M156.5,47.5l12.9-14.8 c2.7-3,5.1-6.2,7.2-9.7c2.1-3.4,3.5-6.6,4-9.6c0.1-1,0.1-1.6,0.1-2c0-2.2-0.6-3.9-1.8-5.2c-1.2-1.3-3-1.9-5.4-1.9 c-3.6,0.1-6.6,1.5-8.7,4.2c-1.1,1.4-2,2.8-2.5,4.2s-0.9,3.2-1.3,5.4l-0.4,3h-1.2l3-18.9h1.2l-0.9,6.1c4.1-4.5,8.4-6.7,12.8-6.7 c1.7,0,3.2,0.4,4.6,1.2s2.5,1.8,3.2,3.2s1.2,2.9,1.2,4.5c0,0.3-0.1,0.9-0.1,1.7c-0.3,1.9-1.2,4.3-2.8,7.1s-3.4,5.5-5.5,8.4 c-2.1,2.8-4.2,5.5-6.3,8.1s-4.3,5.3-6.5,8h16l1.9-11.5h1.2l-2.4,15.3L156.5,47.5L156.5,47.5z M23.4,47.5l12.9-14.8 c2.7-3,5.1-6.2,7.2-9.7c2.1-3.4,3.5-6.6,4-9.6c0.1-1,0.1-1.6,0.1-2c0-2.2-0.6-3.9-1.8-5.2c-1.2-1.3-3-1.9-5.4-1.9 c-3.6,0.1-6.6,1.5-8.7,4.2c-1.1,1.4-2,2.8-2.5,4.2S28.3,16,28,18.2l-0.4,3h-1.2l3-18.9h1.2l-0.9,6.1c4.1-4.5,8.4-6.7,12.8-6.7 c1.7,0,3.2,0.4,4.6,1.2s2.5,1.8,3.2,3.2s1.2,2.9,1.2,4.5c0,0.3-0.1,0.9-0.1,1.7c-0.3,1.9-1.2,4.3-2.8,7.1s-3.4,5.5-5.5,8.4 c-2.1,2.8-4.2,5.5-6.3,8.1s-4.3,5.3-6.5,8h16L48,32.2h1.2l-2.4,15.3L23.4,47.5L23.4,47.5z M188.3,27c0.6-4,2.1-7.9,4.4-11.7 c2.3-3.8,5.2-7,8.6-9.5c3.5-2.5,7.2-3.7,11.3-3.7c3.3,0,6.2,0.9,8.6,2.6c2.4,1.7,4.3,4,5.5,6.8c1.2,2.8,1.9,5.9,1.9,9.1 c0,1.4-0.1,2.7-0.3,3.8c-0.6,3.8-2,7.5-4.3,11.3c-2.3,3.8-5.2,6.9-8.6,9.4s-7.1,3.7-11,3.7c-3.2,0-6.1-0.8-8.6-2.5s-4.4-3.9-5.7-6.7 s-2-5.8-2-9C188,29.3,188.1,28.1,188.3,27L188.3,27z M218.9,39.9c3-3.4,5-7.6,6-12.8c0.3-1.7,0.4-3.3,0.4-4.9 c0-3.9-0.9-7.3-2.7-10.2c-3-4.9-6.9-7.3-11.6-7.3C206,4.9,201.6,7,197.9,11c-3,3.2-5,7.6-6.1,13.2c-0.3,1.5-0.4,3-0.4,4.5 c0,4,1,7.4,2.9,10.3c3,4.6,7,7,12.1,7.1c2.2,0,4.4-0.6,6.7-1.7C215.2,43.3,217.2,41.8,218.9,39.9L218.9,39.9z M229.5,47.5l12.9-14.8 c2.7-3,5.1-6.2,7.2-9.7c2.1-3.4,3.5-6.6,4-9.6c0.1-1,0.1-1.6,0.1-2c0-2.2-0.6-3.9-1.8-5.2c-1.2-1.3-3-1.9-5.4-1.9 c-3.6,0.1-6.6,1.5-8.7,4.2c-1.1,1.4-2,2.8-2.5,4.2s-0.9,3.2-1.3,5.4l-0.4,3h-1.2l3-18.9h1.2l-0.9,6.1c4.1-4.5,8.4-6.7,12.8-6.7 c1.7,0,3.2,0.4,4.6,1.2s2.5,1.8,3.2,3.2c0.8,1.3,1.2,2.9,1.2,4.5c0,0.3,0,0.9-0.1,1.7c-0.3,1.9-1.2,4.3-2.8,7.1 c-1.6,2.8-3.4,5.5-5.5,8.4c-2.1,2.8-4.2,5.5-6.3,8.1s-4.3,5.3-6.5,8h16l1.9-11.5h1.2l-2.4,15.3L229.5,47.5L229.5,47.5z M265,21.1 c1.9-1.3,4.5-2.5,8-3.6c3-1,5.2-2,6.6-3.1c1.5-1.1,2.4-2.8,2.8-5.3c0.1-0.7,0.1-1.2,0.1-1.5c0-1.7-0.5-3-1.5-4c-1-1-2.3-1.5-4.1-1.5 s-3.2,0.4-4.6,1.3s-2.5,2-3.4,3.5s-1.5,3-1.7,4.7h-1.2L267.8,0h1.2l-0.6,4.3c1.6-1.2,3.4-2.2,5.2-2.9c1.9-0.8,3.7-1.2,5.3-1.2 c2.3,0,4.1,0.7,5.5,2.1s2,3.4,2,6.1c-0.3,1.7-1,3.3-2.3,4.8s-2.8,2.7-4.5,3.6c2.7,0.8,4.8,2,6.3,3.7s2.3,3.8,2.3,6.3 c0,0.7-0.1,1.4-0.2,2.2c-0.9,5.3-3.8,9.8-8.8,13.7c-2.2,1.7-4.7,3.1-7.4,4.2s-5.3,1.6-7.7,1.6s-4.5-0.4-6.5-1.1l0.2-1.5 c2.6,0.7,4.7,1.1,6.4,1.1c4.1,0,8.2-1.6,12.3-4.9c2-1.6,3.7-3.5,5.3-5.6s2.4-4.2,2.8-6.4c0.1-0.9,0.1-1.5,0.1-2 c0-2.7-0.9-4.9-2.6-6.6s-4.1-2.5-7-2.5c-3.1,0-6.3,1.2-9.8,3.8L265,21.1L265,21.1z"></path> </svg> 